<svg width="65" height="66" viewBox="0 0 65 66" fill="none" xmlns="http://www.w3.org/2000/svg">
<path d="M32.5 0.374023C14.58 0.374023 0 14.954 0 32.874C0 50.794 14.58 65.374 32.5 65.374C50.42 65.374 65 50.794 65 32.874C65 14.954 50.42 0.374023 32.5 0.374023ZM32.5 5.37402C47.715 5.37402 60 17.659 60 32.874C60 48.089 47.715 60.374 32.5 60.374C17.285 60.374 5 48.089 5 32.874C5 17.659 17.285 5.37402 32.5 5.37402ZM32.265 17.874C23.955 17.874 17.265 24.564 17.265 32.874C17.265 41.184 23.955 47.874 32.265 47.874C38.2625 47.874 43.39 44.279 45.78 39.2015L41.25 37.094C39.6375 40.519 36.27 42.874 32.265 42.874C26.5725 42.874 22.265 38.5665 22.265 32.874C22.265 27.1815 26.5725 22.874 32.265 22.874C36.27 22.874 39.64 25.2265 41.25 28.6565L45.7825 26.5465C43.3875 21.469 38.2625 17.874 32.2625 17.874H32.265Z" fill="black"/>
</svg>
