<svg width="75" height="75" viewBox="0 0 75 75" fill="none" xmlns="http://www.w3.org/2000/svg">
<rect width="75" height="75" rx="37.5" fill="#550312"/>
<path d="M48.75 37.5C48.75 40.4837 47.5647 43.3452 45.455 45.455C43.3452 47.5647 40.4837 48.75 37.5 48.75C34.5163 48.75 31.6548 47.5647 29.545 45.455C27.4353 43.3452 26.25 40.4837 26.25 37.5C26.25 36.8587 26.3175 36.2325 26.4337 35.625H22.5V50.6137C22.5 51.6562 23.3437 52.5 24.3862 52.5H50.6175C51.1171 52.499 51.5959 52.2998 51.9489 51.9462C52.3018 51.5926 52.5 51.1134 52.5 50.6137V35.625H48.5662C48.6825 36.2325 48.75 36.8587 48.75 37.5ZM37.5 45C38.4852 44.9998 39.4606 44.8055 40.3707 44.4282C41.2808 44.051 42.1076 43.4982 42.8041 42.8014C43.5005 42.1046 44.0529 41.2775 44.4297 40.3672C44.8064 39.457 45.0002 38.4814 45 37.4962C44.9998 36.5111 44.8055 35.5356 44.4282 34.6255C44.051 33.7155 43.4982 32.8886 42.8014 32.1922C42.1046 31.4957 41.2775 30.9434 40.3672 30.5666C39.457 30.1898 38.4814 29.996 37.4962 29.9962C35.5066 29.9967 33.5987 30.7876 32.1922 32.1948C30.7857 33.602 29.9958 35.5104 29.9962 37.5C29.9967 39.4896 30.7876 41.3976 32.1948 42.8041C33.602 44.2106 35.5104 45.0005 37.5 45ZM46.5 29.625H50.9962C51.295 29.625 51.5815 29.5066 51.7931 29.2957C52.0046 29.0849 52.124 28.7987 52.125 28.5V24.0037C52.125 23.7044 52.0061 23.4173 51.7944 23.2056C51.5827 22.9939 51.2956 22.875 50.9962 22.875H46.5C46.2006 22.875 45.9135 22.9939 45.7019 23.2056C45.4902 23.4173 45.3713 23.7044 45.3713 24.0037V28.5C45.375 29.1187 45.8812 29.625 46.5 29.625ZM37.5 1.5C27.9522 1.5 18.7955 5.29285 12.0442 12.0442C5.29285 18.7955 1.5 27.9522 1.5 37.5C1.5 47.0478 5.29285 56.2045 12.0442 62.9558C18.7955 69.7072 27.9522 73.5 37.5 73.5C42.2276 73.5 46.9089 72.5688 51.2766 70.7597C55.6443 68.9505 59.6129 66.2988 62.9558 62.9558C66.2988 59.6129 68.9505 55.6443 70.7597 51.2766C72.5688 46.9089 73.5 42.2276 73.5 37.5C73.5 32.7724 72.5688 28.0911 70.7597 23.7234C68.9505 19.3557 66.2988 15.3871 62.9558 12.0442C59.6129 8.70125 55.6443 6.04951 51.2766 4.24034C46.9089 2.43117 42.2276 1.5 37.5 1.5ZM56.25 52.0837C56.25 54.375 54.375 56.25 52.0837 56.25H22.9162C20.625 56.25 18.75 54.375 18.75 52.0837V22.9162C18.75 20.625 20.625 18.75 22.9162 18.75H52.0837C54.375 18.75 56.25 20.625 56.25 22.9162V52.0837Z" fill="#FFBE41"/>
</svg>
