<svg width="75" height="75" viewBox="0 0 75 75" fill="none" xmlns="http://www.w3.org/2000/svg">
<rect width="75" height="75" rx="37.5" fill="#550312"/>
<path d="M37.5 1.5C17.6175 1.5 1.5 17.6175 1.5 37.5C1.5 57.3825 17.6175 73.5 37.5 73.5C57.3825 73.5 73.5 57.3825 73.5 37.5C73.5 17.6175 57.3825 1.5 37.5 1.5ZM28.6875 52.4212H21.3975V28.9612H28.6875V52.4212ZM24.9975 26.0812C22.695 26.0812 21.2062 24.45 21.2062 22.4325C21.2062 20.3737 22.74 18.7912 25.0912 18.7912C27.4425 18.7912 28.8825 20.3737 28.9275 22.4325C28.9275 24.45 27.4425 26.0812 24.9975 26.0812ZM55.3125 52.4212H48.0225V39.42C48.0225 36.3937 46.965 34.3387 44.3288 34.3387C42.315 34.3387 41.1188 35.73 40.59 37.0687C40.395 37.545 40.3462 38.22 40.3462 38.8913V52.4175H33.0525V36.4425C33.0525 33.5138 32.9587 31.065 32.8612 28.9575H39.195L39.5288 32.2162H39.675C40.635 30.6862 42.9862 28.4287 46.92 28.4287C51.7162 28.4287 55.3125 31.6425 55.3125 38.55V52.4212Z" fill="#FFBE41"/>
</svg>
