<svg width="51" height="51" viewBox="0 0 51 51" fill="none" xmlns="http://www.w3.org/2000/svg">
<path d="M2.18816 1.8034C3.07927 0.912556 4.28772 0.412109 5.54775 0.412109C6.80778 0.412109 8.01622 0.912556 8.90733 1.8034L25.71 18.6061L42.5127 1.8034C43.4089 0.937803 44.6092 0.458839 45.8552 0.469666C47.1011 0.480493 48.2929 0.980244 49.174 1.86128C50.055 2.74232 50.5547 3.93415 50.5656 5.18008C50.5764 6.42601 50.0974 7.62635 49.2318 8.52257L32.4292 25.3252L49.2318 42.1279C50.0974 43.0241 50.5764 44.2245 50.5656 45.4704C50.5547 46.7163 50.055 47.9082 49.174 48.7892C48.2929 49.6702 47.1011 50.17 45.8552 50.1808C44.6092 50.1916 43.4089 49.7127 42.5127 48.8471L25.71 32.0444L8.90733 48.8471C8.01112 49.7127 6.81078 50.1916 5.56485 50.1808C4.31892 50.17 3.12709 49.6702 2.24605 48.7892C1.36501 47.9082 0.865258 46.7163 0.854432 45.4704C0.843605 44.2245 1.32257 43.0241 2.18816 42.1279L18.9908 25.3252L2.18816 8.52257C1.29732 7.63146 0.796875 6.42301 0.796875 5.16298C0.796875 3.90295 1.29732 2.69451 2.18816 1.8034Z" fill="white"/>
</svg>
