<svg width="75" height="75" viewBox="0 0 75 75" fill="none" xmlns="http://www.w3.org/2000/svg">
<rect width="75" height="75" rx="37.5" fill="#550312"/>
<path d="M37.5 1.5C17.6175 1.5 1.5 17.6175 1.5 37.5C1.5 57.3825 17.6175 73.5 37.5 73.5C57.3825 73.5 73.5 57.3825 73.5 37.5C73.5 17.6175 57.3825 1.5 37.5 1.5ZM46.0275 26.3775H40.6163C39.975 26.3775 39.2625 27.2213 39.2625 28.3425V32.25H46.0313L45.0075 37.8225H39.2625V54.5513H32.8763V37.8225H27.0825V32.25H32.8763V28.9725C32.8763 24.27 36.1388 20.4488 40.6163 20.4488H46.0275V26.3775V26.3775Z" fill="#FFBE41"/>
</svg>
