<svg width="100" height="101" viewBox="0 0 100 101" fill="none" xmlns="http://www.w3.org/2000/svg">
<path d="M93.6618 19.2501H75.8767L77.6189 12.2852L85.1032 9.73638C86.695 9.19537 87.6423 7.50396 87.1833 5.88677C87.0665 5.47996 86.8683 5.10111 86.6007 4.7732C86.3331 4.44529 86.0017 4.17516 85.6266 3.97919C85.2514 3.78322 84.8404 3.6655 84.4184 3.63316C83.9964 3.60082 83.5722 3.65454 83.1716 3.79107L73.9919 6.91607C73.4976 7.08464 73.0533 7.37444 72.6999 7.75896C72.3464 8.14348 72.0949 8.61047 71.9685 9.11724L69.4353 19.2501H43.8376C42.156 19.2501 40.7126 20.543 40.6286 22.2247C40.6083 22.6472 40.6739 23.0695 40.8216 23.4659C40.9692 23.8623 41.1958 24.2246 41.4876 24.5308C41.7795 24.8371 42.1304 25.0809 42.5193 25.2475C42.9081 25.4141 43.3267 25.5 43.7497 25.5001H44.2868L44.4821 27.1915C44.5281 27.5865 44.7177 27.9508 45.0148 28.2151C45.3119 28.4794 45.6958 28.6253 46.0935 28.6251C53.7107 28.6251 60.4802 30.754 65.6482 34.7813C68.5226 36.9961 70.8528 39.8387 72.4607 43.0919C73.3607 44.9217 74.0248 46.8584 74.4372 48.8555C74.5193 49.2447 74.7498 49.5866 75.0798 49.8086C77.7367 51.6114 79.6967 54.2692 80.634 57.3401C81.5713 60.4111 81.4295 63.7103 80.2321 66.6895C80.0929 67.0343 80.0825 67.4177 80.2029 67.7696C80.8948 69.7524 81.2487 71.8374 81.2497 73.9376C81.2497 78.3008 79.7653 82.459 77.07 85.6465C75.5419 87.4658 73.6196 88.9132 71.4489 89.879C71.0734 90.0444 70.778 90.351 70.6267 90.7325C69.8155 92.8456 68.67 94.8147 67.2341 96.5645C67.1743 96.6355 67.136 96.7221 67.1237 96.814C67.1114 96.906 67.1255 96.9996 67.1644 97.0839C67.2034 97.1681 67.2655 97.2395 67.3436 97.2897C67.4216 97.3399 67.5124 97.3668 67.6052 97.3672H77.2165C79.5697 97.3576 81.8341 96.4674 83.5638 94.8718C85.2934 93.2762 86.3631 91.0909 86.5622 88.7461L93.2419 25.5001H93.7497C94.1731 25.5005 94.5921 25.415 94.9814 25.2486C95.3707 25.0823 95.7221 24.8385 96.0143 24.5322C96.3066 24.2259 96.5335 23.8635 96.6814 23.4668C96.8293 23.0701 96.8951 22.6475 96.8747 22.2247C96.7927 20.543 95.3435 19.2501 93.6618 19.2501Z" fill="#EFA923"/>
<path d="M21.2285 63C21.8449 62.9971 22.4557 63.1164 23.0256 63.3511C23.5955 63.5858 24.1132 63.9311 24.5488 64.3672L27.5781 67.3965C27.6507 67.4691 27.7368 67.5267 27.8317 67.5661C27.9265 67.6054 28.0282 67.6256 28.1309 67.6256C28.2335 67.6256 28.3352 67.6054 28.43 67.5661C28.5249 67.5267 28.611 67.4691 28.6836 67.3965L31.707 64.3672C32.1426 63.9311 32.6604 63.5858 33.2303 63.3511C33.8002 63.1164 34.411 62.9971 35.0273 63H73.4219C73.6271 63.0021 73.8307 62.9637 74.021 62.8871C74.2114 62.8104 74.3848 62.6971 74.5313 62.5534C74.6779 62.4098 74.7947 62.2387 74.8751 62.0499C74.9555 61.8611 74.998 61.6583 75 61.4531V61.4375C74.9978 59.6372 74.375 57.8926 73.2365 56.498C72.098 55.1033 70.5135 54.1438 68.75 53.7812C68.5898 47.9824 66.2109 43.1289 61.8145 39.7188C57.748 36.5469 52.3145 34.875 46.0938 34.875H32.0312C18.707 34.875 9.68164 42.4473 9.375 53.7812C7.61155 54.1438 6.02703 55.1033 4.88853 56.498C3.75004 57.8926 3.1272 59.6372 3.125 61.4375C3.125 61.8519 3.28962 62.2493 3.58265 62.5424C3.87567 62.8354 4.2731 63 4.6875 63H21.2285Z" fill="#EFA923"/>
<path d="M36.3164 69.25C36.1112 69.2499 35.9079 69.2902 35.7182 69.3686C35.5285 69.447 35.3562 69.562 35.2109 69.7071L30.8867 74.0332C30.1542 74.7655 29.1608 75.1769 28.125 75.1769C27.0892 75.1769 26.0958 74.7655 25.3633 74.0332L21.0391 69.7071C20.8938 69.562 20.7215 69.447 20.5318 69.3686C20.3421 69.2902 20.1388 69.2499 19.9336 69.25H6.37891C5.64484 69.2468 4.93325 69.5032 4.36996 69.9739C3.80667 70.4446 3.42796 71.0993 3.30078 71.8223C3.18345 72.5213 3.12465 73.2288 3.125 73.9375C3.125 79.9121 7.25195 84.7793 12.3555 84.875C12.8301 87.8282 13.9785 90.4961 15.707 92.584C18.2637 95.6719 21.9805 97.375 26.1719 97.375H51.9531C56.1445 97.375 59.8613 95.6719 62.418 92.5801C64.1465 90.4922 65.2949 87.8243 65.7695 84.8711C70.873 84.7793 75 79.9121 75 73.9336C75.0004 73.2249 74.9416 72.5174 74.8242 71.8184C74.6962 71.0961 74.3172 70.4423 73.7539 69.9724C73.1907 69.5024 72.4796 69.2466 71.7461 69.25H36.3164Z" fill="#EFA923"/>
</svg>
