<svg width="82" height="82" viewBox="0 0 82 82" fill="none" xmlns="http://www.w3.org/2000/svg">
<g clip-path="url(#clip0_151_288)">
<path d="M78.9688 68H3.03125C2.3457 68 1.75244 67.666 1.25146 66.998C0.750488 66.3301 0.5 65.5391 0.5 64.625C0.5 51.4062 3.57178 40.1387 9.71533 30.8223C15.8589 21.5059 23.7559 15.8984 33.4062 14C34.0918 14 34.6851 13.666 35.186 12.998C35.687 12.3301 35.9375 11.5391 35.9375 10.625C35.9375 9.71094 35.687 8.91992 35.186 8.25195C34.6851 7.58398 34.0918 7.25 33.4062 7.25C32.7207 7.25 32.1274 6.91602 31.6265 6.24805C31.1255 5.58008 30.875 4.78906 30.875 3.875C30.875 2.96094 31.1255 2.16992 31.6265 1.50195C32.1274 0.833984 32.7207 0.5 33.4062 0.5H48.5938C49.2793 0.5 49.8726 0.833984 50.3735 1.50195C50.8745 2.16992 51.125 2.96094 51.125 3.875C51.125 4.78906 50.8745 5.58008 50.3735 6.24805C49.8726 6.91602 49.2793 7.25 48.5938 7.25C47.9082 7.25 47.3149 7.58398 46.814 8.25195C46.313 8.91992 46.0625 9.71094 46.0625 10.625C46.0625 11.5391 46.313 12.3301 46.814 12.998C47.3149 13.666 47.9082 14 48.5938 14C58.2441 15.8984 66.1411 21.5059 72.2847 30.8223C78.4282 40.1387 81.5 51.4062 81.5 64.625C81.5 65.5391 81.2495 66.3301 80.7485 66.998C80.2476 67.666 79.6543 68 78.9688 68ZM3.03125 74.75H78.9688C79.6543 74.75 80.2476 75.084 80.7485 75.752C81.2495 76.4199 81.5 77.2109 81.5 78.125C81.5 79.0391 81.2495 79.8301 80.7485 80.498C80.2476 81.166 79.6543 81.5 78.9688 81.5H3.03125C2.3457 81.5 1.75244 81.166 1.25146 80.498C0.750488 79.8301 0.5 79.0391 0.5 78.125C0.5 77.2109 0.750488 76.4199 1.25146 75.752C1.75244 75.084 2.3457 74.75 3.03125 74.75Z" fill="#EFA923"/>
</g>
<defs>
<clipPath id="clip0_151_288">
<rect width="81" height="81" fill="white" transform="translate(0.5 0.5)"/>
</clipPath>
</defs>
</svg>
